# xmcd
#
# Track frame offsets:
#	150
#	16357
#	33677
#	49236
#	62352
#	85313
#	107661
#	121185
#	138922
#	156495
#	177338
#	190388
#	207936
#
# Disc length: 3149 seconds
#
# Revision: 0
# Processed by: cddbd v1.5.1PL0 Copyright (c) Steve Scherf et al.
# Submitted via: EasyCDDAExtractor 8.2.1.1
#
DISCID=b40c4b0d
DTITLE=Various Artist - Steal This Record
DYEAR=1900
DGENRE=Blues
TTITLE0=Barry McGuire - Eve Of Destruction
TTITLE1=Marvin Gaye - What's Going On
TTITLE2=Edwin Starr - War
TTITLE3=Brian Auger, Julie Driscoll and The Trinity - Save The Country
TTITLE4=Rod Stewart - Street Fighting Man
TTITLE5=Eric Burdon and  - Sky Pilot
TTITLE6=Smokey Robinson and The Miracles - Abraham, Martin and John
TTITLE7=The Temptations - Ball Of Confusion
TTITLE8=Richie Havens - Handsome Johnny
TTITLE9=Richie Havens - Maggies's Farm
TTITLE10=P.F. Sloan - We Five
TTITLE11=We Five - High Flying Bird
TTITLE12=Toots and The Maytals - Get Up Stand Up
EXTD=
EXTT0=
EXTT1=
EXTT2=
EXTT3=
EXTT4=
EXTT5=
EXTT6=
EXTT7=
EXTT8=
EXTT9=
EXTT10=
EXTT11=
EXTT12=
PLAYORDER=
